<?xml version="1.0" standalone="no"?>
<!DOCTYPE svg PUBLIC "-//W3C//DTD SVG 20010904//EN"
 "http://www.w3.org/TR/2001/REC-SVG-20010904/DTD/svg10.dtd">
<svg version="1.0" xmlns="http://www.w3.org/2000/svg"
 width="694.000000pt" height="694.000000pt" viewBox="0 0 694.000000 694.000000"
 preserveAspectRatio="xMidYMid meet">

<g transform="translate(0.000000,694.000000) scale(0.100000,-0.100000)"
fill="#000000" stroke="none">
<path d="M3557 6217 c-8 -21 -149 -39 -240 -32 -73 6 -104 2 -268 -34 -108
-23 -232 -57 -295 -81 -60 -23 -152 -57 -205 -75 -228 -80 -390 -183 -589
-378 -127 -125 -177 -184 -265 -316 -119 -178 -211 -388 -276 -625 -100 -367
-104 -593 -19 -1071 46 -260 147 -483 309 -685 29 -36 136 -152 238 -258 133
-137 212 -210 277 -255 49 -34 99 -67 110 -72 23 -11 80 -44 194 -112 94 -56
159 -85 290 -126 181 -58 500 -110 707 -115 260 -6 466 27 638 103 45 20 127
54 182 76 202 80 228 97 525 334 320 255 382 312 445 405 54 82 136 244 140
281 2 15 17 59 34 98 36 85 72 227 107 426 25 141 26 163 21 370 -7 267 -16
329 -72 498 -23 73 -48 152 -55 177 -7 25 -46 125 -87 223 -80 189 -135 276
-314 497 -80 98 -285 292 -399 378 -157 117 -399 236 -590 288 -86 24 -469 94
-514 94 -13 0 -26 -6 -29 -13z m58 -167 c132 -17 258 -47 335 -78 65 -26 211
-63 228 -58 44 14 368 -140 513 -244 109 -77 328 -294 402 -397 113 -158 205
-332 246 -463 67 -217 127 -462 142 -580 21 -165 -14 -521 -68 -685 -28 -89
-66 -187 -87 -225 -112 -209 -153 -270 -256 -380 -52 -56 -135 -134 -185 -174
-152 -123 -417 -310 -480 -339 -412 -186 -539 -217 -873 -217 -110 0 -213 6
-272 16 -52 8 -137 17 -189 19 -124 6 -181 17 -331 66 -133 44 -200 73 -200
89 0 5 -19 19 -42 31 -24 12 -119 67 -213 122 -146 87 -184 115 -273 201 -57
56 -112 117 -123 136 -11 19 -51 76 -90 125 -103 133 -216 370 -265 557 -18
73 -43 265 -54 433 -7 98 -5 162 6 260 22 190 29 226 85 400 46 145 165 410
202 454 8 9 31 45 52 81 80 139 247 331 395 455 258 215 606 370 910 404 137
15 328 12 485 -9z m1530 -3289 c-44 -43 -127 -116 -185 -162 -58 -46 -114 -92
-125 -102 -11 -10 -39 -33 -63 -50 -23 -18 -68 -52 -100 -76 -95 -72 -119 -88
-103 -67 8 9 78 67 155 127 268 208 311 244 396 326 47 45 90 83 95 83 6 0
-26 -35 -70 -79z"/>
<path d="M2744 5227 c-115 -105 25 -278 142 -175 l36 32 -5 66 c-6 55 -11 68
-34 87 -42 35 -95 31 -139 -10z"/>
<path d="M2130 5099 c-13 -6 -28 -15 -32 -22 -4 -7 -7 -185 -7 -397 0 -359 1
-389 20 -446 24 -75 51 -91 126 -77 43 8 48 11 45 33 -4 42 -2 102 6 184 l7
78 79 29 c88 32 171 81 187 111 22 42 50 164 45 197 -5 32 -69 143 -110 190
-12 12 -61 43 -110 68 -75 38 -94 43 -126 38 -26 -4 -48 -1 -69 9 -16 9 -31
16 -33 15 -2 0 -14 -5 -28 -10z m235 -174 c69 -28 124 -127 111 -198 -11 -57
-65 -128 -119 -156 -26 -13 -49 -22 -52 -19 -2 2 -8 93 -11 202 l-7 198 24 -7
c13 -4 38 -13 54 -20z"/>
<path d="M3587 5052 c-28 -6 -20 -19 23 -36 28 -11 72 -16 139 -16 54 0 100
-2 103 -6 7 -6 -23 -86 -56 -153 -13 -25 -26 -60 -29 -77 -3 -17 -29 -81 -57
-142 -52 -114 -105 -276 -95 -292 3 -5 1 -11 -4 -14 -13 -9 16 -64 37 -70 61
-18 93 -18 113 0 17 15 40 19 152 20 122 2 132 4 129 21 -2 10 -6 20 -9 23 -2
2 -62 3 -134 2 -112 -3 -129 -1 -129 12 0 32 104 307 160 422 17 34 30 64 30
68 0 3 16 31 37 61 35 54 36 56 23 98 -8 23 -13 45 -12 50 5 17 -53 25 -223
28 -100 2 -188 3 -198 1z"/>
<path d="M3074 5036 c-3 -9 -4 -22 -1 -30 6 -14 78 -26 162 -26 76 0 84 -10
52 -59 -15 -22 -57 -105 -93 -183 -36 -79 -87 -183 -114 -233 -62 -117 -75
-162 -58 -216 9 -32 20 -45 45 -55 42 -18 73 -18 87 1 8 12 48 18 161 27 158
11 189 22 183 61 -4 30 -73 51 -119 38 -41 -12 -172 -15 -167 -3 47 103 205
411 232 451 45 66 50 138 14 195 l-23 35 -155 1 c-85 0 -165 3 -177 6 -16 4
-25 1 -29 -10z"/>
<path d="M4340 4997 c0 -24 -9 -70 -20 -103 -12 -32 -27 -96 -35 -141 -16 -90
-38 -153 -55 -153 -6 0 -8 -14 -4 -38 4 -28 -3 -69 -25 -147 -37 -128 -39
-165 -12 -165 25 0 33 13 38 63 2 22 10 63 18 91 8 27 15 66 15 85 0 20 4 41
8 46 4 6 49 9 109 7 102 -3 103 -3 109 -30 4 -15 27 -78 52 -141 37 -89 51
-115 71 -122 31 -12 69 -4 100 22 l23 19 -32 93 c-37 108 -78 246 -109 372
-12 50 -40 129 -63 177 -45 96 -61 108 -144 108 l-44 0 0 -43z m80 -243 c15
-61 31 -121 35 -132 6 -21 4 -22 -84 -22 -50 0 -91 2 -91 4 0 2 7 23 15 46 8
23 15 60 15 81 0 21 12 75 26 121 l27 83 15 -35 c8 -19 27 -85 42 -146z"/>
<path d="M2775 4948 c-28 -86 -55 -481 -41 -610 8 -76 19 -94 62 -103 47 -9
67 15 60 74 -9 72 -10 219 -3 418 8 208 3 233 -43 233 -17 0 -32 -6 -35 -12z"/>
<path d="M4240 4152 l-23 -19 2 -432 c1 -288 5 -440 12 -453 10 -19 17 -20 83
-14 39 4 125 10 191 15 66 5 133 14 148 20 16 6 46 8 68 5 37 -6 39 -5 39 20
0 42 -38 51 -135 34 -44 -8 -106 -13 -137 -10 l-57 4 -6 66 c-4 37 -13 109
-22 160 -13 84 -13 96 1 127 19 39 20 91 4 187 -9 55 -9 84 1 129 10 50 9 66
-4 106 -9 26 -21 53 -27 60 -16 20 -111 16 -138 -5z"/>
<path d="M1932 4093 c-19 -17 -20 -34 -26 -424 -8 -482 -14 -457 94 -440 36 6
128 14 205 17 149 7 173 15 171 57 -1 22 -4 22 -150 25 -83 1 -151 4 -153 6
-2 2 1 32 6 67 21 136 15 565 -9 609 -5 10 -10 30 -10 44 0 47 -88 74 -128 39z"/>
<path d="M3767 4090 c-9 -13 -12 -33 -8 -57 4 -22 1 -54 -6 -75 -7 -21 -15
-57 -19 -80 -3 -24 -19 -83 -34 -133 -16 -49 -47 -148 -69 -220 -58 -184 -81
-278 -70 -289 5 -5 10 -8 12 -5 1 2 16 22 31 43 16 21 39 70 51 109 23 78 20
76 126 84 l67 5 16 -58 c48 -171 93 -231 166 -218 72 13 86 54 51 149 -63 172
-85 240 -117 362 -20 76 -46 160 -59 188 -12 28 -28 69 -35 90 -14 44 -66 125
-80 125 -5 0 -15 -9 -23 -20z m42 -437 c18 -120 19 -119 -39 -120 -28 -1 -50
3 -50 9 0 19 41 172 52 192 15 27 23 8 37 -81z"/>
<path d="M4870 4091 c-62 -14 -87 -29 -142 -83 -61 -60 -102 -135 -120 -221
-11 -52 -10 -68 10 -144 26 -104 66 -172 113 -195 55 -26 138 -37 173 -23 17
7 66 16 109 20 90 8 122 28 158 100 29 58 21 95 -21 95 -22 0 -36 -9 -57 -37
-15 -20 -46 -49 -67 -65 -51 -37 -119 -38 -193 -4 -46 22 -53 30 -63 66 -13
49 -8 70 17 70 9 0 54 11 99 25 86 26 133 57 157 103 8 15 22 42 32 60 13 24
16 49 13 88 -9 113 -99 172 -218 145z m50 -181 c17 -31 11 -63 -21 -113 -33
-53 -75 -77 -134 -77 -23 0 -35 5 -35 14 0 13 23 66 63 146 7 13 28 35 46 47
36 25 61 19 81 -17z"/>
<path d="M3133 4020 c-107 -53 -189 -160 -228 -295 -15 -50 -16 -68 -6 -129
11 -66 53 -171 83 -206 15 -18 94 -72 137 -94 61 -32 229 -13 276 30 14 13 31
27 37 31 31 19 60 87 52 118 -8 34 -25 36 -108 15 -114 -29 -228 -8 -282 52
-40 44 -58 90 -58 158 -1 54 4 73 27 113 52 88 165 157 234 141 45 -9 87 -26
105 -42 23 -20 39 -6 31 26 -7 31 -17 40 -90 82 -71 41 -129 41 -210 0z"/>
<path d="M2565 3990 c-3 -5 -23 -10 -44 -10 -51 0 -153 -52 -193 -100 -18 -21
-48 -68 -67 -104 -48 -95 -42 -124 66 -287 35 -54 88 -79 165 -79 159 0 269
73 315 207 35 103 46 187 29 227 -16 39 -72 104 -100 117 -12 6 -32 16 -46 24
-29 17 -116 20 -125 5z m-9 -77 c1 -7 2 -17 3 -23 0 -5 8 -10 16 -10 20 0 75
-98 75 -133 0 -37 -37 -115 -74 -156 -22 -24 -97 -51 -141 -51 -32 0 -56 19
-90 72 -16 27 -16 31 0 95 10 38 26 82 36 98 20 33 83 96 114 114 25 14 60 10
61 -6z"/>
<path d="M4023 1790 c-32 -13 -53 -51 -81 -143 -21 -68 -26 -112 -31 -252 l-6
-171 -33 -44 c-36 -49 -27 -65 18 -32 l28 21 27 -74 c46 -128 124 -171 186
-104 16 17 29 35 29 40 0 5 5 9 10 9 6 0 10 -9 10 -19 0 -25 42 -58 91 -71 32
-9 46 -7 82 9 52 24 70 43 98 105 19 43 20 53 8 93 -18 65 -53 103 -95 103
-43 0 -144 -44 -144 -63 0 -47 -96 -187 -127 -187 -22 0 -73 71 -88 122 -18
60 -20 124 -4 134 28 17 73 110 114 236 62 188 59 255 -10 283 -39 17 -51 17
-82 5z m74 -115 c-4 -44 -21 -103 -52 -178 -53 -131 -64 -147 -66 -92 -3 71 1
109 23 200 25 109 39 135 75 135 l26 0 -6 -65z m262 -501 c26 -33 26 -60 1
-101 -16 -27 -26 -33 -55 -33 -29 0 -37 5 -46 27 -14 36 -2 81 29 110 32 30
46 29 71 -3z"/>
<path d="M5296 1738 c-33 -25 -76 -110 -76 -153 0 -16 -5 -48 -11 -70 -7 -22
-17 -83 -23 -135 -11 -94 -11 -95 -40 -100 -39 -7 -36 -24 5 -30 31 -5 34 -9
49 -70 33 -137 101 -194 203 -170 35 7 38 6 73 -36 67 -83 124 -93 219 -41 67
37 108 90 119 150 6 29 4 37 -8 37 -9 0 -20 -9 -26 -21 -16 -29 -128 -99 -160
-99 -32 0 -76 32 -85 60 -5 15 5 33 37 69 50 55 73 120 62 176 -6 35 -8 37
-38 32 -67 -12 -92 -20 -115 -41 -31 -28 -71 -113 -71 -153 0 -31 -2 -33 -33
-33 -43 0 -73 32 -93 95 -20 68 -18 86 15 131 15 21 46 73 67 114 38 73 39 77
36 170 -4 136 -35 171 -106 118z m74 -37 c13 -26 13 -142 -1 -178 -14 -39 -82
-143 -93 -143 -11 0 0 211 14 261 10 35 43 79 60 79 5 0 14 -9 20 -19z m200
-457 c0 -21 -38 -84 -51 -84 -15 0 -10 33 11 68 21 34 40 42 40 16z"/>
<path d="M3325 1548 c-2 -7 -10 -56 -17 -108 -13 -93 -14 -95 -43 -101 -17 -4
-51 -7 -77 -8 -100 -2 -58 -61 44 -61 l60 0 -7 -103 c-8 -117 7 -177 44 -177
29 0 33 15 16 56 -18 44 -21 204 -3 222 7 7 27 9 52 6 33 -5 45 -2 60 15 31
34 14 51 -48 51 -30 0 -58 5 -61 11 -4 5 1 41 10 78 20 81 17 124 -8 129 -9 2
-19 -2 -22 -10z"/>
<path d="M1327 1406 c-128 -54 -199 -148 -183 -244 7 -48 69 -136 124 -178 39
-29 52 -34 101 -34 101 1 170 49 154 109 -6 24 -20 26 -47 6 -57 -43 -206 22
-206 89 0 19 7 25 35 30 25 5 57 27 105 73 59 55 70 71 70 98 0 67 -64 88
-153 51z m73 -56 c12 -7 11 -12 -5 -31 -25 -27 -104 -79 -122 -79 -25 0 -13
30 30 75 43 44 68 54 97 35z"/>
<path d="M1620 1323 c-16 -16 -37 -45 -45 -66 l-15 -37 40 -44 c34 -37 40 -50
40 -87 0 -50 -27 -115 -59 -143 -29 -26 -27 -39 13 -70 46 -34 70 -33 97 6 53
73 31 234 -42 312 -21 24 -39 49 -39 56 0 7 14 29 30 50 17 21 30 41 30 44 0
14 -21 4 -50 -21z"/>
<path d="M2760 1302 c-126 -125 -14 -336 162 -307 37 7 78 34 78 53 0 5 -6 16
-13 26 -11 16 -15 16 -49 1 -87 -36 -163 -7 -175 67 -5 35 -4 37 33 47 22 6
47 11 56 11 22 0 65 39 72 66 4 13 -1 31 -15 47 -17 22 -29 27 -66 27 -39 0
-51 -5 -83 -38z m110 -26 c0 -14 -85 -64 -95 -55 -10 11 5 34 33 52 33 20 62
22 62 3z"/>
<path d="M1850 1264 c-44 -40 -80 -122 -80 -182 0 -20 9 -56 19 -78 44 -96
221 -126 221 -37 0 34 -49 54 -101 40 -31 -7 -44 -6 -64 7 -58 38 -41 125 41
203 30 28 54 58 54 67 0 29 -48 18 -90 -20z"/>
<path d="M2200 1282 c0 -5 -24 -12 -52 -14 -48 -5 -57 -10 -100 -57 -43 -47
-48 -57 -48 -101 0 -59 21 -87 72 -93 27 -3 50 2 81 19 l44 23 22 -25 c27 -31
68 -30 62 1 -2 11 -6 72 -10 135 l-6 115 -32 3 c-18 2 -33 -1 -33 -6z m-31
-81 c6 -10 13 -36 17 -58 7 -48 -8 -63 -70 -70 -36 -4 -46 -2 -54 13 -31 62
75 176 107 115z"/>
<path d="M2390 1273 c-36 -15 -70 -84 -52 -106 5 -7 10 -77 9 -157 0 -243 14
-320 59 -320 17 0 17 14 3 151 -10 91 -9 110 5 136 14 28 20 31 83 35 111 8
163 50 163 132 0 53 -15 82 -57 110 -33 23 -47 26 -118 25 -44 0 -87 -3 -95
-6z m174 -79 c23 -22 20 -60 -6 -78 -33 -23 -113 -21 -138 4 -27 27 -26 68 3
80 38 15 124 12 141 -6z"/>
<path d="M5039 1261 c-17 -12 -30 -16 -44 -10 -39 15 -107 10 -142 -12 -106
-66 -111 -194 -9 -243 48 -23 92 -20 141 9 42 24 43 24 60 5 19 -21 60 -26 85
-10 12 8 13 13 2 27 -37 52 -52 100 -52 170 0 39 -4 74 -9 77 -5 3 -19 -3 -32
-13z m-51 -87 c12 -8 22 -24 22 -34 0 -28 -67 -70 -111 -70 -44 0 -62 19 -53
54 14 57 93 85 142 50z"/>
<path d="M4580 1251 c-52 -27 -80 -74 -80 -135 0 -92 62 -156 151 -156 57 0
99 33 99 78 0 41 -7 44 -51 22 -66 -34 -103 -22 -127 40 -20 51 36 120 96 120
23 0 46 25 37 40 -10 16 -87 12 -125 -9z"/>
<path d="M3490 1247 c-29 -14 -70 -89 -70 -128 0 -32 40 -83 81 -104 15 -8 46
-15 69 -15 34 0 47 6 71 32 33 37 34 41 18 105 -16 60 -75 123 -115 123 -16 0
-40 -6 -54 -13z m59 -113 c26 -33 27 -64 3 -64 -23 0 -50 21 -52 40 -7 55 16
66 49 24z"/>
</g>
</svg>
